<?xml version="1.0" encoding="utf-8"?>
<!-- Generator: Adobe Illustrator 18.1.0, SVG Export Plug-In . SVG Version: 6.00 Build 0)  -->
<svg version="1.1" id="Layer_1" xmlns="http://www.w3.org/2000/svg" xmlns:xlink="http://www.w3.org/1999/xlink" x="0px" y="0px"
	 viewBox="0 0 350 300" enable-background="new 0 0 350 300" xml:space="preserve">
<rect x="71.3" y="119.7" fill="#F1F2F2" width="220.7" height="62.7"/>
<rect y="-1" fill="#EE5F24" width="350" height="301"/>
<path fill="none" stroke="#FFFFFF" stroke-width="2" stroke-miterlimit="10" d="M105.7,211"/>
<g enable-background="new    ">
	<path fill="#FFFFFF" d="M87.3,133.6v25.9c0,4.6,1.3,7.9,6.4,7.9c5.1,0,6.4-3.3,6.4-7.9v-25.9h3.5v25.2c0,3.1-0.1,6.2-2.1,8.7
		c-1.6,2-4.4,3.2-8,3.2c-3.6,0-6.3-1.2-7.9-3.2c-2-2.4-2.1-5.5-2.1-8.7v-25.2H87.3z"/>
	<path fill="#FFFFFF" d="M129.6,169.6c0,0-2.4,0.9-5.6,0.9c-10,0-12.5-8.3-12.5-18.5c0-10.2,2.4-18.6,12.5-18.6
		c3.2,0,5.6,0.9,5.6,0.9v3.4h-0.3c0,0-2.3-0.9-5-0.9c-6.6,0-8.8,5.5-8.8,15.1c0,9.7,2.2,15.4,8.9,15.4c2.6,0,4.9-0.9,4.9-0.9h0.3
		V169.6z"/>
	<path fill="#FFFFFF" d="M144.2,133.6c2.5,0,4.6,0,6.7,1.3c1.9,1.2,3.5,3.3,3.5,7.6c0,7.7-5,8.2-5,8.2s6.5,0.5,6.5,9.4
		c0,4.2-1.4,6.7-3.6,8.2c-2.5,1.8-5.6,1.8-7.7,1.8h-7.5v-36.5H144.2z M140.8,149.4h3.7c1.3,0,2.6,0,3.8-0.8c1.2-0.8,2.2-2.4,2.2-5.6
		c0-3.1-0.9-4.6-2.1-5.4c-1.2-0.8-3-0.7-3.9-0.7h-3.6V149.4z M140.8,166.9h4.1c1.5,0,3.3,0,4.8-1.2c1.2-1,2.1-2.7,2.1-5.7
		c0-3.1-0.9-5.1-2.7-6.2c-1.6-1-3.6-1-4.8-1h-3.6V166.9z"/>
</g>
<g enable-background="new    ">
	<path fill="#FFFFFF" d="M169.8,133.6l10,32.5l10-32.5h3.5v36.5h-2.4v-33.5l-10,32.3h-2.4l-9.9-32.3v33.5h-2.2v-36.5H169.8z"/>
	<path fill="#FFFFFF" d="M205.3,133.6v26.2c0,5.1,1.3,8.8,7.1,8.8c5.7,0,7.1-3.7,7.1-8.8v-26.2h2.2v25.8c0,2.7,0,5.9-2.1,8.3
		c-1.8,2.1-4.5,2.9-7.3,2.9c-3.1,0-5.6-0.9-7.2-2.9c-2-2.4-2.1-5.5-2.1-8.3v-25.8H205.3z"/>
	<path fill="#FFFFFF" d="M234.2,133.6l14.7,32.2v-32.2h2.2v36.5h-2.6l-15-32.9v32.9h-2.2v-36.5H234.2z"/>
</g>
<g enable-background="new    ">
	<path fill="#FFFFFF" d="M263.5,134l1.4,2.9l1.4-2.9h0.7l-1.7,3.4l1.8,3.7h-0.8l-1.5-3.1l-1.5,3.1h-0.7l1.8-3.6l-1.7-3.4H263.5z"/>
	<path fill="#FFFFFF" d="M270.7,134v7h-0.7v-7H270.7z"/>
	<path fill="#FFFFFF" d="M274.5,134l1.4,2.9l1.4-2.9h0.7l-1.7,3.4l1.8,3.7h-0.8l-1.5-3.1l-1.5,3.1h-0.7l1.8-3.6l-1.7-3.4H274.5z"/>
</g>
<rect x="262.2" y="144.9" fill="#FFFFFF" width="16.9" height="1.2"/>
<g>
</g>
</svg>
